Coordinates
version=1
nRows=17
nColumns=40
inDegrees=yes

Units are S.I. units (second, meters, Newtons, ...)
Angles are in degrees.

endheader
time	pelvis_tilt	pelvis_list	pelvis_rotation	pelvis_tx	pelvis_ty	pelvis_tz	hip_flexion_r	hip_adduction_r	hip_rotation_r	knee_angle_r	knee_angle_r_beta	ankle_angle_r	subtalar_angle_r	mtp_angle_r	hip_flexion_l	hip_adduction_l	hip_rotation_l	knee_angle_l	knee_angle_l_beta	ankle_angle_l	subtalar_angle_l	mtp_angle_l	lumbar_extension	lumbar_bending	lumbar_rotation	arm_flex_r	arm_add_r	arm_rot_r	elbow_flex_r	pro_sup_r	wrist_flex_r	wrist_dev_r	arm_flex_l	arm_add_l	arm_rot_l	elbow_flex_l	pro_sup_l	wrist_flex_l	wrist_dev_l
     58.92828571	     -3.57620172	     -6.78353697	     -4.63799974	      1.09270237	      0.93758038	      0.44534447	     29.52045304	     -2.31029585	     -6.45720576	     41.91520540	     41.91520540	      1.24670924	    -11.20573473	     -1.73039152	     10.92200596	     -8.86316333	    -10.98619748	     20.07680158	     20.07680158	     13.28116234	    -11.47390108	     -1.17271322	    -11.94085204	      4.48819546	     -0.40838672	      2.05263566	    -13.88931174	     -2.53018951	     42.63577976	     45.58051103	      0.00000000	      0.00000000	     12.76087263	    -18.35181918	      3.43858557	     50.01720706	     45.89055812	      0.00000000	      0.00000000
     58.94157143	     -3.89899205	     -6.81837520	     -5.05640715	      1.09091818	      0.93735670	      0.44588966	     29.36746057	     -1.82897631	     -6.75195011	     37.60323708	     37.60323708	      1.58666880	     -9.86210259	     -1.43433284	     10.75113079	     -8.93064981	    -11.31450583	     19.75515745	     19.75515745	     13.39931414	    -11.51331153	     -1.18417228	    -11.82668379	      4.55251642	     -0.39820172	      2.20488743	    -13.91664098	     -2.62869982	     42.69434106	     45.58491066	      0.00000000	      0.00000000	     13.27479072	    -18.35650562	      3.43373604	     50.35281888	     45.90442443	      0.00000000	      0.00000000
     58.95485714	     -4.06988187	     -6.80526838	     -5.43826908	      1.08934476	      0.93722514	      0.44642076	     28.84995120	     -1.42852273	     -7.22676780	     33.00746386	     33.00746386	      1.90191921	     -7.86009070	     -1.37403568	     10.39152516	     -8.92379194	    -11.65584886	     19.40092166	     19.40092166	     13.50990561	    -11.50279757	     -1.29145581	    -11.90539814	      4.54706312	     -0.24918900	      2.37350107	    -13.99564723	     -2.85411338	     42.58367297	     45.60276893	      0.00000000	      0.00000000	     13.82129655	    -18.30196306	      3.44041714	     50.92593564	     45.92472354	      0.00000000	      0.00000000
     58.96814286	     -4.34846772	     -6.68982431	     -5.80280370	      1.08785120	      0.93674036	      0.44701898	     28.35513898	     -1.13162555	     -7.91590144	     28.32852815	     28.32852815	      2.02088594	     -5.32704016	     -1.85731580	     10.14408030	     -8.83068828	    -12.06168866	     19.01811547	     19.01811547	     13.50812122	    -11.42661670	     -1.70806873	    -11.82547574	      4.46402072	     -0.13808515	      2.61961361	    -13.81560361	     -3.60227859	     42.13431787	     45.66176712	      0.00000000	      0.00000000	     14.09394751	    -18.34583514	      3.49920929	     51.94185327	     45.96279631	      0.00000000	      0.00000000
     58.98142857	     -4.61705341	     -6.66003716	     -6.10860115	      1.08644904	      0.93615756	      0.44775928	     27.73866837	     -0.60037253	     -8.37870778	     23.64499841	     23.64499841	      2.16490365	     -3.05578891	     -1.19842759	      9.98620589	     -8.83874226	    -12.30187110	     18.82888133	     18.82888133	     13.63762460	    -11.49708585	     -1.90811929	    -11.74409854	      4.50312069	     -0.07763277	      2.79281248	    -13.83627165	     -3.80762344	     41.99596414	     45.67915045	      0.00000000	      0.00000000	     14.49658987	    -18.29701304	      3.51294085	     52.50914629	     45.98121606	      0.00000000	      0.00000000
     58.99471429	     -4.84741438	     -6.54802499	     -6.38325766	      1.08524936	      0.93544532	      0.44857102	     27.09656485	     -0.18125148	     -9.01928815	     19.28016552	     19.28016552	      2.30769962	     -0.33577560	     -0.21615371	      9.78542031	     -8.76798415	    -12.58747223	     18.64516346	     18.64516346	     13.76930683	    -11.46251307	     -2.20869414	    -11.67264873	      4.44583763	      0.03774972	      2.95865153	    -13.80803096	     -4.04971004	     41.77803034	     45.70134109	      0.00000000	      0.00000000	     14.82797391	    -18.25111615	      3.53058771	     53.22193885	     46.00121167	      0.00000000	      0.00000000
     59.00800000	     -5.08180276	     -6.37913254	     -6.60796871	      1.08421330	      0.93457279	      0.44941212	     26.72084715	      0.06120212	    -10.07367556	     15.86584385	     15.86584385	      3.35433524	      3.10600381	      3.38435439	      9.58738475	     -8.63865663	    -12.87011441	     18.42585369	     18.42585369	     13.67758596	    -11.48262078	     -3.11518070	    -11.56397161	      4.33042998	     -0.11086499	      3.49764728	    -13.45998257	     -5.12630197	     40.90020067	     45.79271151	      0.00000000	      0.00000000	     14.64416530	    -18.46609934	      3.55913431	     54.82386579	     46.07155913	      0.00000000	      0.00000000
     59.02128571	     -5.27124125	     -6.25311841	     -6.79443832	      1.08341282	      0.93371145	      0.45046551	     26.21010509	      0.49711332	    -10.54865925	     12.64023062	     12.64023062	      3.21178632	      4.99784765	      4.60904353	      9.37371146	     -8.55379439	    -13.03162815	     18.31990819	     18.31990819	     13.88147004	    -11.50648134	     -3.30217811	    -11.46135815	      4.28768934	      0.05378589	      3.57424393	    -13.46639502	     -5.18433476	     40.78313794	     45.80001994	      0.00000000	      0.00000000	     14.96805206	    -18.32904721	      3.55483165	     55.27396191	     46.09034812	      0.00000000	      0.00000000
     59.03457143	     -5.55639114	     -5.85099196	     -7.00036935	      1.08260873	      0.93245229	      0.45160494	     26.29095805	      0.58826826	    -10.73056069	     10.76119703	     10.76119703	      3.10948924	      6.12403360	      5.30825300	      9.35268137	     -8.20523284	    -13.25719541	     18.33661697	     18.33661697	     14.10880630	    -11.53346119	     -3.49251900	    -11.14871427	      3.93911645	      0.13083561	      3.73113205	    -13.40056413	     -5.19721681	     40.78235655	     45.80136358	      0.00000000	      0.00000000	     15.31409318	    -18.27629184	      3.55130706	     55.63210647	     46.10173033	      0.00000000	      0.00000000
     59.04785714	     -5.54918340	     -5.98721522	     -7.02920866	      1.08249449	      0.93202290	      0.45286997	     25.53815054	      1.11555824	    -11.78365506	      8.71756288	      8.71756288	      2.90892413	      7.97731459	      6.65698913	      8.85598360	     -8.38797356	    -13.29768633	     18.17845172	     18.17845172	     14.33806222	    -11.43523587	     -3.72530482	    -11.25293329	      4.21750141	      0.31234056	      3.69789738	    -13.45406593	     -5.28895139	     40.54050723	     45.81481665	      0.00000000	      0.00000000	     15.35075724	    -18.08961438	      3.62111000	     56.26374179	     46.11434706	      0.00000000	      0.00000000
     59.06114286	     -5.65155747	     -5.85930724	     -7.09843473	      1.08237246	      0.93129902	      0.45420852	     25.35048623	      1.30183811	    -12.56452796	      7.99810686	      7.99810686	      2.85517053	      9.04360680	      7.68159514	      8.51857862	     -8.31574863	    -13.48295257	     18.05987167	     18.05987167	     14.55976341	    -11.25982641	     -3.95121274	    -11.12581197	      4.18212319	      0.42148812	      3.80397057	    -13.42477670	     -5.38934680	     40.37627678	     45.82621471	      0.00000000	      0.00000000	     15.35493286	    -18.00034536	      3.68600975	     56.93193171	     46.12839027	      0.00000000	      0.00000000
     59.07442857	     -5.71252030	     -5.76816298	     -7.11794210	      1.08251874	      0.93060954	      0.45564802	     25.23571055	      1.42936880	    -13.25982430	      8.08007088	      8.08007088	      2.87245793	      9.53731355	      8.48366922	      8.13298994	     -8.28575827	    -13.61758648	     17.96262613	     17.96262613	     14.83325392	    -11.04850076	     -4.11020557	    -11.03883566	      4.21454752	      0.35989205	      4.05763154	    -13.33148251	     -5.57926143	     40.12443578	     45.84498585	      0.00000000	      0.00000000	     15.11796331	    -18.01797000	      3.76312333	     57.88982664	     46.15830661	      0.00000000	      0.00000000
     59.08771429	     -5.81718731	     -5.62766785	     -7.12533319	      1.08300019	      0.92982003	      0.45722283	     24.97013341	      1.54420605	    -13.49549613	      8.23579684	      8.23579684	      2.59741650	      9.38399884	      8.55429721	      7.85019134	     -8.20361036	    -13.63268342	     17.99066639	     17.99066639	     15.04182085	    -11.10993552	     -4.17620936	    -10.74697765	      4.23276381	      0.36993763	      4.08704741	    -13.32428453	     -5.58019821	     40.13536289	     45.84474798	      0.00000000	      0.00000000	     15.12211872	    -17.97994223	      3.77097734	     57.91960230	     46.15853209	      0.00000000	      0.00000000
     59.10100000	     -5.70586491	     -5.53835158	     -6.99517482	      1.08400009	      0.92921646	      0.45880631	     24.73923557	      1.53290558	    -13.70107679	      9.36343428	      9.36343428	      2.20884681	      8.51028834	      7.31226147	      7.14027673	     -8.11548602	    -13.64323491	     17.68857723	     17.68857723	     15.48432577	    -10.77174012	     -3.97748038	    -10.72913911	      4.26515495	      0.44111231	      4.06494427	    -13.30206071	     -5.61710663	     40.00516331	     45.84962896	      0.00000000	      0.00000000	     14.84851236	    -17.70612941	      3.78541968	     58.44442198	     46.17768913	      0.00000000	      0.00000000
     59.11428571	     -5.60037035	     -5.55854284	     -6.80416301	      1.08532298	      0.92859703	      0.46039677	     24.14800035	      1.63390316	    -13.95605897	     10.09880534	     10.09880534	      1.93474670	      8.06202412	      7.03561708	      6.55212300	     -8.16564321	    -13.47151994	     17.63948012	     17.63948012	     15.84282210	    -10.71956402	     -4.00493416	    -10.63498956	      4.51160963	      0.40301237	      3.95948211	    -13.32506365	     -5.63047904	     39.96118209	     45.85103980	      0.00000000	      0.00000000	     14.54964144	    -17.49134205	      3.84773376	     58.45339789	     46.17297926	      0.00000000	      0.00000000
     59.12757143	     -5.36333095	     -5.26431413	     -6.68032762	      1.08714635	      0.92768717	      0.46227161	     23.57603691	      1.47916983	    -13.31816089	     11.10647215	     11.10647215	      0.20805030	      6.31666260	      1.07342140	      5.77396967	     -7.90685278	    -13.66415109	     17.62206061	     17.62206061	     16.95885547	     -9.97613303	     -2.48727602	    -10.56806204	      4.30792408	      0.22041528	      3.96326450	    -13.30246110	     -5.67320805	     40.19325414	     45.83593137	      0.00000000	      0.00000000	     13.89683811	    -17.52959839	      3.41546799	     59.42433506	     46.27263143	      0.00000000	      0.00000000
     59.14085714	     -5.12904598	     -5.11618400	     -6.48122987	      1.08915878	      0.92699245	      0.46406515	     23.02952860	      1.33660909	    -13.16042543	     12.37732548	     12.37732548	      0.40683312	      5.62567535	      0.55507221	      4.93633325	     -7.76301429	    -13.62338050	     17.42803644	     17.42803644	     17.33322614	     -9.78809826	     -2.39612685	    -10.47995590	      4.32642486	      0.25115966	      3.82241621	    -13.35343843	     -5.66184838	     40.15980935	     45.83465540	      0.00000000	      0.00000000	     13.56868697	    -17.33353832	      3.41462692	     59.31131117	     46.27612990	      0.00000000	      0.00000000
